<svg xmlns="http://www.w3.org/2000/svg" viewBox="0 0 512 512" role="img" aria-label="القرآن الكريم مباشر">
  <defs>
    <linearGradient id="bg" x1="0" y1="0" x2="0" y2="1">
      <stop offset="0" stop-color="#1c1a13"/><stop offset="1" stop-color="#0e0d0a"/>
    </linearGradient>
    <radialGradient id="glow" cx="50%" cy="38%" r="55%">
      <stop offset="0" stop-color="#d4af37" stop-opacity=".22"/><stop offset="1" stop-color="#d4af37" stop-opacity="0"/>
    </radialGradient>
    <linearGradient id="gold" x1="0" y1="0" x2="1" y2="1">
      <stop offset="0" stop-color="#f0d27a"/><stop offset="1" stop-color="#c79a2a"/>
    </linearGradient>
    <linearGradient id="goldR" x1="1" y1="0" x2="0" y2="1">
      <stop offset="0" stop-color="#e6c76a"/><stop offset="1" stop-color="#b98a22"/>
    </linearGradient>
  </defs>
  <rect width="512" height="512" rx="112" fill="url(#bg)"/><rect width="512" height="512" rx="112" fill="url(#glow)"/>
  <g transform="translate(256 262) scale(1.08) translate(-256 -262)">
  <g fill="none" stroke="url(#gold)" stroke-linecap="round">
    <path d="M205 214 A62 62 0 0 1 307 214" stroke-width="15"/>
    <path d="M178 192 A104 104 0 0 1 334 192" stroke-width="12" opacity=".7"/>
    <path d="M152 170 A146 146 0 0 1 360 170" stroke-width="9" opacity=".4"/>
  </g>
  <circle cx="256" cy="262" r="13" fill="url(#gold)"/>
  <path d="M252 306 C220 284 176 282 138 296 L138 390 C176 376 220 378 252 398 Z" fill="url(#gold)"/>
  <path d="M260 306 C292 284 336 282 374 296 L374 390 C336 376 292 378 260 398 Z" fill="url(#goldR)"/>
  </g>
</svg>
